<?xml version="1.0" encoding="UTF-8"?>
<svg xmlns="http://www.w3.org/2000/svg" width="900" height="700" viewBox="0 0 900 700" role="img">
  <defs>
    <linearGradient id="bg" x1="0" x2="1" y1="0" y2="1">
      <stop offset="0" stop-color="#ffffff"/>
      <stop offset="1" stop-color="#edf4fb"/>
    </linearGradient>
    <radialGradient id="glow" cx="50%" cy="40%" r="55%">
      <stop offset="0" stop-color="#24314d" stop-opacity=".18"/>
      <stop offset="1" stop-color="#24314d" stop-opacity="0"/>
    </radialGradient>
    <filter id="shadow" x="-30%" y="-30%" width="160%" height="170%">
      <feDropShadow dx="0" dy="26" stdDeviation="20" flood-color="#102033" flood-opacity=".18"/>
    </filter>
    <filter id="softShadow" x="-20%" y="-20%" width="140%" height="150%">
      <feDropShadow dx="0" dy="12" stdDeviation="10" flood-color="#102033" flood-opacity=".14"/>
    </filter>
  </defs>
  <rect width="900" height="700" fill="url(#bg)"/>
  <circle cx="450" cy="310" r="260" fill="url(#glow)"/>
  <ellipse cx="450" cy="606" rx="255" ry="42" fill="#102033" opacity=".08"/>
  
  <g filter="url(#shadow)" transform="translate(326 72)">
    <rect x="92" y="42" width="142" height="86" rx="26" fill="#dfe4e8" stroke="#aeb9c3" stroke-width="8"/>
    <rect x="70" y="116" width="186" height="386" rx="82" fill="#24314d"/>
    <rect x="94" y="116" width="48" height="386" rx="24" fill="#ffffff" opacity=".08"/>
    <rect x="80" y="100" width="166" height="46" rx="20" fill="#121c33"/>
    <rect x="78" y="474" width="170" height="64" rx="28" fill="#d8dee6"/>
    <rect x="248" y="220" width="58" height="172" rx="29" fill="none" stroke="#2b3854" stroke-width="18"/>
    <path d="M281 252v108" stroke="#d8dee6" stroke-width="10" stroke-linecap="round"/>
    <circle cx="162" cy="304" r="44" fill="#ffffff" opacity=".12"/>
  </g>
  <path d="M244 540c56 42 108 51 159 25" fill="none" stroke="#f7c517" stroke-width="14" stroke-linecap="round" opacity=".62"/>
  
</svg>
