<?xml version="1.0" encoding="UTF-8"?>
<svg xmlns="http://www.w3.org/2000/svg" width="900" height="700" viewBox="0 0 900 700" role="img">
  <defs>
    <linearGradient id="bg" x1="0" x2="1" y1="0" y2="1">
      <stop offset="0" stop-color="#ffffff"/>
      <stop offset="1" stop-color="#edf4fb"/>
    </linearGradient>
    <radialGradient id="glow" cx="50%" cy="40%" r="55%">
      <stop offset="0" stop-color="#8fa9bd" stop-opacity=".18"/>
      <stop offset="1" stop-color="#8fa9bd" stop-opacity="0"/>
    </radialGradient>
    <filter id="shadow" x="-30%" y="-30%" width="160%" height="170%">
      <feDropShadow dx="0" dy="26" stdDeviation="20" flood-color="#102033" flood-opacity=".18"/>
    </filter>
    <filter id="softShadow" x="-20%" y="-20%" width="140%" height="150%">
      <feDropShadow dx="0" dy="12" stdDeviation="10" flood-color="#102033" flood-opacity=".14"/>
    </filter>
  </defs>
  <rect width="900" height="700" fill="url(#bg)"/>
  <circle cx="450" cy="310" r="260" fill="url(#glow)"/>
  <ellipse cx="450" cy="606" rx="255" ry="42" fill="#102033" opacity=".08"/>
  
  <g filter="url(#shadow)" transform="translate(186 160)">
    <path d="M114 106h424l-58 300H170z" fill="#f4f8fb" stroke="#d1dce8" stroke-width="8"/>
    <path d="M114 106l72-58h410l-58 58z" fill="#ffffff" stroke="#d1dce8" stroke-width="8"/>
    <path d="M538 106l58-58-46 284-70 74z" fill="#e4edf5" stroke="#d1dce8" stroke-width="8"/>
    <rect x="252" y="184" width="132" height="34" rx="17" fill="#c6d4df"/>
    <path d="M177 406h302" stroke="#d1dce8" stroke-width="10" stroke-linecap="round"/>
    <path d="M192 126h326" stroke="#ffffff" stroke-width="14" stroke-linecap="round" opacity=".85"/>
  </g>
  <rect x="236" y="506" width="84" height="18" rx="9" fill="#f7c517" opacity=".6"/>
  
</svg>
