<?xml version="1.0" encoding="UTF-8"?>
<svg xmlns="http://www.w3.org/2000/svg" width="900" height="700" viewBox="0 0 900 700" role="img">
  <defs>
    <linearGradient id="bg" x1="0" x2="1" y1="0" y2="1">
      <stop offset="0" stop-color="#ffffff"/>
      <stop offset="1" stop-color="#edf4fb"/>
    </linearGradient>
    <radialGradient id="glow" cx="50%" cy="40%" r="55%">
      <stop offset="0" stop-color="#245a9d" stop-opacity=".18"/>
      <stop offset="1" stop-color="#245a9d" stop-opacity="0"/>
    </radialGradient>
    <filter id="shadow" x="-30%" y="-30%" width="160%" height="170%">
      <feDropShadow dx="0" dy="26" stdDeviation="20" flood-color="#102033" flood-opacity=".18"/>
    </filter>
    <filter id="softShadow" x="-20%" y="-20%" width="140%" height="150%">
      <feDropShadow dx="0" dy="12" stdDeviation="10" flood-color="#102033" flood-opacity=".14"/>
    </filter>
  </defs>
  <rect width="900" height="700" fill="url(#bg)"/>
  <circle cx="450" cy="310" r="260" fill="url(#glow)"/>
  <ellipse cx="450" cy="606" rx="255" ry="42" fill="#102033" opacity=".08"/>
  
  <g filter="url(#shadow)" transform="translate(230 165)">
    <rect x="116" y="202" width="300" height="172" rx="76" fill="#ffffff" stroke="#d6e3ef" stroke-width="8"/>
    <path d="M152 234c48 50 176 54 228 0" fill="none" stroke="#eef4fa" stroke-width="34" stroke-linecap="round"/>
    <circle cx="205" cy="186" r="54" fill="#245a9d"/>
    <circle cx="327" cy="186" r="54" fill="#245a9d"/>
    <rect x="184" y="222" width="42" height="104" rx="21" fill="#245a9d"/>
    <rect x="306" y="222" width="42" height="104" rx="21" fill="#245a9d"/>
    <circle cx="205" cy="186" r="23" fill="#ffffff" opacity=".88"/>
    <circle cx="327" cy="186" r="23" fill="#ffffff" opacity=".88"/>
    <path d="M204 396h124" stroke="#d7e4ee" stroke-width="10" stroke-linecap="round"/>
  </g>
  <circle cx="593" cy="178" r="38" fill="#f7c517" opacity=".25"/>
  
</svg>
