<?xml version="1.0" encoding="UTF-8"?>
<svg xmlns="http://www.w3.org/2000/svg" width="900" height="700" viewBox="0 0 900 700" role="img">
  <defs>
    <linearGradient id="bg" x1="0" x2="1" y1="0" y2="1">
      <stop offset="0" stop-color="#ffffff"/>
      <stop offset="1" stop-color="#edf4fb"/>
    </linearGradient>
    <radialGradient id="glow" cx="50%" cy="40%" r="55%">
      <stop offset="0" stop-color="#6fa6e2" stop-opacity=".18"/>
      <stop offset="1" stop-color="#6fa6e2" stop-opacity="0"/>
    </radialGradient>
    <filter id="shadow" x="-30%" y="-30%" width="160%" height="170%">
      <feDropShadow dx="0" dy="26" stdDeviation="20" flood-color="#102033" flood-opacity=".18"/>
    </filter>
    <filter id="softShadow" x="-20%" y="-20%" width="140%" height="150%">
      <feDropShadow dx="0" dy="12" stdDeviation="10" flood-color="#102033" flood-opacity=".14"/>
    </filter>
  </defs>
  <rect width="900" height="700" fill="url(#bg)"/>
  <circle cx="450" cy="310" r="260" fill="url(#glow)"/>
  <ellipse cx="450" cy="606" rx="255" ry="42" fill="#102033" opacity=".08"/>
  
  <g filter="url(#shadow)" transform="translate(305 78)">
    <rect x="87" y="376" width="246" height="88" rx="42" fill="#ffffff" stroke="#d8e4ee" stroke-width="7"/>
    <path d="M95 392c39 42 190 45 232 0v50c-34 51-196 51-232 0z" fill="#ecf4fb"/>
    <path d="M110 266c0-111 45-188 100-188s100 77 100 188c0 90-40 142-100 142s-100-52-100-142z" fill="#dfeaff" stroke="#bccde2" stroke-width="7"/>
    <ellipse cx="210" cy="178" rx="94" ry="86" fill="#abc6e7"/>
    <g fill="#ffffff" opacity=".86">
      <circle cx="152" cy="116" r="4"/><circle cx="166" cy="116" r="4"/><circle cx="180" cy="116" r="4"/><circle cx="194" cy="116" r="4"/><circle cx="208" cy="116" r="4"/><circle cx="222" cy="116" r="4"/><circle cx="236" cy="116" r="4"/><circle cx="250" cy="116" r="4"/><circle cx="264" cy="116" r="4"/><circle cx="145" cy="129" r="4"/><circle cx="159" cy="129" r="4"/><circle cx="173" cy="129" r="4"/><circle cx="187" cy="129" r="4"/><circle cx="201" cy="129" r="4"/><circle cx="215" cy="129" r="4"/><circle cx="229" cy="129" r="4"/><circle cx="243" cy="129" r="4"/><circle cx="257" cy="129" r="4"/><circle cx="271" cy="129" r="4"/><circle cx="138" cy="142" r="4"/><circle cx="152" cy="142" r="4"/><circle cx="166" cy="142" r="4"/><circle cx="180" cy="142" r="4"/><circle cx="194" cy="142" r="4"/><circle cx="208" cy="142" r="4"/><circle cx="222" cy="142" r="4"/><circle cx="236" cy="142" r="4"/><circle cx="250" cy="142" r="4"/><circle cx="264" cy="142" r="4"/><circle cx="278" cy="142" r="4"/><circle cx="145" cy="155" r="4"/><circle cx="159" cy="155" r="4"/><circle cx="173" cy="155" r="4"/><circle cx="187" cy="155" r="4"/><circle cx="201" cy="155" r="4"/><circle cx="215" cy="155" r="4"/><circle cx="229" cy="155" r="4"/><circle cx="243" cy="155" r="4"/><circle cx="257" cy="155" r="4"/><circle cx="271" cy="155" r="4"/><circle cx="285" cy="155" r="4"/><circle cx="138" cy="168" r="4"/><circle cx="152" cy="168" r="4"/><circle cx="166" cy="168" r="4"/><circle cx="180" cy="168" r="4"/><circle cx="194" cy="168" r="4"/><circle cx="208" cy="168" r="4"/><circle cx="222" cy="168" r="4"/><circle cx="236" cy="168" r="4"/><circle cx="250" cy="168" r="4"/><circle cx="264" cy="168" r="4"/><circle cx="278" cy="168" r="4"/><circle cx="145" cy="181" r="4"/><circle cx="159" cy="181" r="4"/><circle cx="173" cy="181" r="4"/><circle cx="187" cy="181" r="4"/><circle cx="201" cy="181" r="4"/><circle cx="215" cy="181" r="4"/><circle cx="229" cy="181" r="4"/><circle cx="243" cy="181" r="4"/><circle cx="257" cy="181" r="4"/><circle cx="271" cy="181" r="4"/><circle cx="285" cy="181" r="4"/><circle cx="138" cy="194" r="4"/><circle cx="152" cy="194" r="4"/><circle cx="166" cy="194" r="4"/><circle cx="180" cy="194" r="4"/><circle cx="194" cy="194" r="4"/><circle cx="208" cy="194" r="4"/><circle cx="222" cy="194" r="4"/><circle cx="236" cy="194" r="4"/><circle cx="250" cy="194" r="4"/><circle cx="264" cy="194" r="4"/><circle cx="278" cy="194" r="4"/><circle cx="145" cy="207" r="4"/><circle cx="159" cy="207" r="4"/><circle cx="173" cy="207" r="4"/><circle cx="187" cy="207" r="4"/><circle cx="201" cy="207" r="4"/><circle cx="215" cy="207" r="4"/><circle cx="229" cy="207" r="4"/><circle cx="243" cy="207" r="4"/><circle cx="257" cy="207" r="4"/><circle cx="271" cy="207" r="4"/><circle cx="285" cy="207" r="4"/><circle cx="138" cy="220" r="4"/><circle cx="152" cy="220" r="4"/><circle cx="166" cy="220" r="4"/><circle cx="180" cy="220" r="4"/><circle cx="194" cy="220" r="4"/><circle cx="208" cy="220" r="4"/><circle cx="222" cy="220" r="4"/><circle cx="236" cy="220" r="4"/><circle cx="250" cy="220" r="4"/><circle cx="264" cy="220" r="4"/><circle cx="278" cy="220" r="4"/>
    </g>
    <circle cx="210" cy="288" r="18" fill="#ffffff" opacity=".65"/>
    <path d="M176 332h68" stroke="#ffffff" stroke-width="8" stroke-linecap="round" opacity=".7"/>
  </g>
  <circle cx="622" cy="185" r="44" fill="#f7c517" opacity=".32"/>
  
</svg>
