<?xml version="1.0" encoding="UTF-8"?>
<svg xmlns="http://www.w3.org/2000/svg" width="900" height="700" viewBox="0 0 900 700" role="img">
  <defs>
    <linearGradient id="bg" x1="0" x2="1" y1="0" y2="1">
      <stop offset="0" stop-color="#ffffff"/>
      <stop offset="1" stop-color="#edf4fb"/>
    </linearGradient>
    <radialGradient id="glow" cx="50%" cy="40%" r="55%">
      <stop offset="0" stop-color="#72a1cf" stop-opacity=".18"/>
      <stop offset="1" stop-color="#72a1cf" stop-opacity="0"/>
    </radialGradient>
    <filter id="shadow" x="-30%" y="-30%" width="160%" height="170%">
      <feDropShadow dx="0" dy="26" stdDeviation="20" flood-color="#102033" flood-opacity=".18"/>
    </filter>
    <filter id="softShadow" x="-20%" y="-20%" width="140%" height="150%">
      <feDropShadow dx="0" dy="12" stdDeviation="10" flood-color="#102033" flood-opacity=".14"/>
    </filter>
  </defs>
  <rect width="900" height="700" fill="url(#bg)"/>
  <circle cx="450" cy="310" r="260" fill="url(#glow)"/>
  <ellipse cx="450" cy="606" rx="255" ry="42" fill="#102033" opacity=".08"/>
  
  <g filter="url(#shadow)" transform="translate(308 158)">
    <rect x="78" y="142" width="240" height="260" rx="74" fill="#ffffff" stroke="#d6e3ef" stroke-width="8"/>
    <rect x="112" y="184" width="172" height="170" rx="56" fill="#eaf5ff"/>
    <path d="M118 316c58 36 111 36 163 0" fill="none" stroke="#74a8d7" stroke-width="16" stroke-linecap="round"/>
    <circle cx="198" cy="272" r="26" fill="#f7c517" opacity=".8"/>
    <rect x="128" y="96" width="140" height="70" rx="32" fill="#245a9d"/>
    <path d="M156 68c36-42 76-42 112 0" fill="none" stroke="#bcd5ee" stroke-width="13" stroke-linecap="round"/>
    <path d="M180 38c20-28 45-28 65 0" fill="none" stroke="#d6e7f7" stroke-width="10" stroke-linecap="round"/>
  </g>
  <path d="M570 178c42 36 48 72 18 110" fill="none" stroke="#f7c517" stroke-width="12" stroke-linecap="round" opacity=".6"/>
  
</svg>
