<?xml version="1.0" encoding="UTF-8"?>
<svg xmlns="http://www.w3.org/2000/svg" width="900" height="700" viewBox="0 0 900 700" role="img">
  <defs>
    <linearGradient id="bg" x1="0" x2="1" y1="0" y2="1">
      <stop offset="0" stop-color="#ffffff"/>
      <stop offset="1" stop-color="#edf4fb"/>
    </linearGradient>
    <radialGradient id="glow" cx="50%" cy="40%" r="55%">
      <stop offset="0" stop-color="#4d93c7" stop-opacity=".18"/>
      <stop offset="1" stop-color="#4d93c7" stop-opacity="0"/>
    </radialGradient>
    <filter id="shadow" x="-30%" y="-30%" width="160%" height="170%">
      <feDropShadow dx="0" dy="26" stdDeviation="20" flood-color="#102033" flood-opacity=".18"/>
    </filter>
    <filter id="softShadow" x="-20%" y="-20%" width="140%" height="150%">
      <feDropShadow dx="0" dy="12" stdDeviation="10" flood-color="#102033" flood-opacity=".14"/>
    </filter>
  </defs>
  <rect width="900" height="700" fill="url(#bg)"/>
  <circle cx="450" cy="310" r="260" fill="url(#glow)"/>
  <ellipse cx="450" cy="606" rx="255" ry="42" fill="#102033" opacity=".08"/>
  
  <g filter="url(#shadow)" transform="translate(228 126)">
    <rect x="118" y="246" width="336" height="172" rx="78" fill="#ffffff" stroke="#d6e3ef" stroke-width="8"/>
    <path d="M162 292c70 58 182 58 248 0" fill="none" stroke="#d8eefc" stroke-width="38" stroke-linecap="round"/>
    <rect x="198" y="116" width="176" height="182" rx="58" fill="#245a9d"/>
    <rect x="224" y="142" width="124" height="96" rx="38" fill="#ffffff" opacity=".18"/>
    <path d="M286 116c0-54 58-54 58 0v154" fill="none" stroke="#75b4dc" stroke-width="26" stroke-linecap="round"/>
    <path d="M324 192c52 28 45 88-10 104" fill="none" stroke="#9bd3ef" stroke-width="18" stroke-linecap="round"/>
    <circle cx="286" cy="334" r="33" fill="#f7c517" opacity=".85"/>
    <path d="M226 422h120" stroke="#d6e3ef" stroke-width="11" stroke-linecap="round"/>
  </g>
  
</svg>
