<?xml version="1.0" encoding="UTF-8"?>
<svg xmlns="http://www.w3.org/2000/svg" width="900" height="700" viewBox="0 0 900 700" role="img">
  <defs>
    <linearGradient id="bg" x1="0" x2="1" y1="0" y2="1">
      <stop offset="0" stop-color="#ffffff"/>
      <stop offset="1" stop-color="#edf4fb"/>
    </linearGradient>
    <radialGradient id="glow" cx="50%" cy="40%" r="55%">
      <stop offset="0" stop-color="#245a9d" stop-opacity=".18"/>
      <stop offset="1" stop-color="#245a9d" stop-opacity="0"/>
    </radialGradient>
    <filter id="shadow" x="-30%" y="-30%" width="160%" height="170%">
      <feDropShadow dx="0" dy="26" stdDeviation="20" flood-color="#102033" flood-opacity=".18"/>
    </filter>
    <filter id="softShadow" x="-20%" y="-20%" width="140%" height="150%">
      <feDropShadow dx="0" dy="12" stdDeviation="10" flood-color="#102033" flood-opacity=".14"/>
    </filter>
  </defs>
  <rect width="900" height="700" fill="url(#bg)"/>
  <circle cx="450" cy="310" r="260" fill="url(#glow)"/>
  <ellipse cx="450" cy="606" rx="255" ry="42" fill="#102033" opacity=".08"/>
  
  <g filter="url(#shadow)" transform="translate(268 104)">
    <rect x="148" y="42" width="188" height="314" rx="44" fill="#142340"/>
    <rect x="168" y="72" width="148" height="254" rx="32" fill="#ffffff"/>
    <rect x="187" y="100" width="110" height="160" rx="22" fill="#dcecff"/>
    <circle cx="242" cy="292" r="16" fill="#d9e2ec"/>
    <circle cx="242" cy="410" r="78" fill="#245a9d"/>
    <circle cx="242" cy="410" r="42" fill="#ffffff" opacity=".86"/>
    <rect x="128" y="478" width="228" height="42" rx="21" fill="#24314d"/>
    <path d="M242 356v62" stroke="#24314d" stroke-width="22" stroke-linecap="round"/>
  </g>
  <path d="M575 450c40 10 68 31 84 64" fill="none" stroke="#f7c517" stroke-width="13" stroke-linecap="round" opacity=".68"/>
  
</svg>
